<?xml version="1.0" encoding="UTF-8" standalone="no"?>
<svg
   xmlns:dc="http://purl.org/dc/elements/1.1/"
   xmlns:cc="http://creativecommons.org/ns#"
   xmlns:rdf="http://www.w3.org/1999/02/22-rdf-syntax-ns#"
   xmlns:svg="http://www.w3.org/2000/svg"
   xmlns="http://www.w3.org/2000/svg"
   xmlns:sodipodi="http://sodipodi.sourceforge.net/DTD/sodipodi-0.dtd"
   xmlns:inkscape="http://www.inkscape.org/namespaces/inkscape"
   width="210mm"
   sodipodi:docname="path.svg"
   height="297mm"
   viewBox="0 0 210 297"
   version="1.1"
   id="svg8"
   inkscape:version="1.0 (1.0+r73+1)">
  <defs
     id="defs2" />
  <sodipodi:namedview
     id="base"
     pagecolor="#ffffff"
     bordercolor="#666666"
     borderopacity="1.0"
     inkscape:pageopacity="0.0"
     inkscape:pageshadow="2"
     inkscape:zoom="0.7"
     inkscape:cx="172.55861"
     inkscape:cy="565.27875"
     inkscape:document-units="mm"
     inkscape:current-layer="layer1"
     inkscape:document-rotation="0"
     showgrid="false"
     inkscape:window-width="1918"
     inkscape:window-height="2105"
     inkscape:window-x="0"
     inkscape:window-y="22"
     inkscape:window-maximized="1" />
  <metadata
     id="metadata5">
    <rdf:RDF>
      <cc:Work
         rdf:about="">
        <dc:format>image/svg+xml</dc:format>
        <dc:type
           rdf:resource="http://purl.org/dc/dcmitype/StillImage" />
        <dc:title />
      </cc:Work>
    </rdf:RDF>
  </metadata>
  <g
     inkscape:label="Layer 1"
     inkscape:groupmode="layer"
     id="layer1">
    <path
       style="fill:none;stroke:#000000;stroke-width:0.264583px;stroke-linecap:butt;stroke-linejoin:miter;stroke-opacity:1"
       d="M 131.331 259.524 C 131.184 258.527 130.937 257.558 130.617 256.609 C 130.299 255.666 129.91 254.742 129.476 253.83 C 129.048 252.932 128.578 252.046 128.091 251.164 C 127.607 250.288 127.108 249.417 126.617 248.544 C 126.124 247.667 125.641 246.787 125.193 245.897 C 124.739 244.995 124.321 244.083 123.967 243.153 C 123.61 242.214 123.317 241.256 123.117 240.273 C 122.921 239.305 122.814 238.312 122.825 237.286 C 122.835 236.324 122.948 235.334 123.186 234.309 C 123.399 233.39 123.713 232.443 124.144 231.465 C 124.521 230.607 124.988 229.724 125.555 228.814 C 126.052 228.017 126.625 227.198 127.283 226.356 C 127.865 225.612 128.512 224.849 129.23 224.067 C 129.873 223.368 130.572 222.652 131.331 221.921 C 132.131 221.241 133.007 220.752 133.934 220.388 C 134.867 220.022 135.851 219.782 136.86 219.602 C 137.847 219.426 138.857 219.308 139.866 219.184 C 140.877 219.061 141.885 218.933 142.867 218.737 C 143.87 218.537 144.845 218.266 145.764 217.857 C 146.666 217.457 147.514 216.923 148.283 216.194 C 148.957 215.556 149.57 214.766 150.105 213.784 C 150.541 212.984 150.924 212.057 151.247 210.979 C 151.511 210.098 151.734 209.115 151.911 208.02 C 152.06 207.098 152.177 206.096 152.258 205.006 C 152.328 204.063 152.372 203.054 152.387 201.975 C 152.321 200.953 152.24 199.936 152.147 198.921 C 152.054 197.903 151.95 196.888 151.839 195.874 C 151.728 194.859 151.61 193.845 151.489 192.832 C 151.368 191.817 151.245 190.804 151.124 189.79 C 151.003 188.776 150.883 187.762 150.77 186.747 C 150.657 185.733 150.551 184.718 150.455 183.699 C 150.36 182.685 150.275 181.667 150.205 180.646 C 150.136 179.631 150.081 178.612 150.045 177.588 C 150.01 176.572 149.993 175.552 150 174.525 C 150.006 173.51 150.034 172.49 150.089 171.463 C 150.143 170.452 150.223 169.434 150.332 168.408 C 150.438 167.404 150.573 166.393 150.739 165.373 C 150.901 164.379 151.094 163.376 151.32 162.365 C 151.539 161.383 151.79 160.394 152.075 159.395 C 152.35 158.431 152.658 157.458 153 156.476 C 153.484 155.588 154.008 154.734 154.566 153.907 C 155.129 153.073 155.725 152.266 156.347 151.481 C 156.969 150.694 157.618 149.928 158.283 149.176 C 158.947 148.425 159.628 147.688 160.318 146.958 C 161.006 146.23 161.703 145.508 162.401 144.787 C 163.098 144.065 163.796 143.344 164.486 142.616 C 165.176 141.887 165.859 141.152 166.525 140.403 C 167.193 139.653 167.843 138.889 168.469 138.105 C 169.094 137.322 169.695 136.519 170.262 135.688 C 170.825 134.863 171.355 134.012 171.844 133.127 C 172.324 132.259 172.764 131.359 173.157 130.421 C 173.537 129.513 173.873 128.569 174.158 127.583 C 174.429 126.645 174.654 125.669 174.826 124.649 C 174.988 123.692 175.103 122.697 175.167 121.66 C 175.226 120.694 175.241 119.692 175.207 118.651 C 175.176 117.686 175.103 116.687 174.985 115.651 C 174.731 114.572 174.452 113.59 174.15 112.698 C 173.788 111.625 173.393 110.684 172.972 109.866 C 172.44 108.831 171.865 107.991 171.259 107.329 C 170.47 106.467 169.628 105.905 168.758 105.602 C 167.774 105.26 166.753 105.25 165.733 105.513 C 164.81 105.751 163.886 106.212 162.989 106.852 C 162.206 107.412 161.443 108.107 160.718 108.911 C 160.06 109.64 159.433 110.458 158.851 111.343 C 158.3 112.178 157.79 113.073 157.331 114.009 C 156.883 114.919 156.485 115.868 156.145 116.839 C 155.805 117.807 155.524 118.797 155.312 119.791 C 155.312 119.791 155.217 121.004 155.071 122.853 C 155 123.747 154.918 124.789 154.829 125.915 C 154.752 126.887 154.67 127.922 154.587 128.976 C 154.507 129.991 154.425 131.024 154.345 132.039 C 154.262 133.094 154.18 134.129 154.103 135.101 C 154.015 136.227 153.932 137.269 153.862 138.163 C 153.716 140.011 153.62 141.224 153.62 141.224 C 152.781 141.366 151.913 141.713 151.037 142.116 C 150.211 142.497 149.379 142.927 148.556 143.283 C 147.661 143.672 146.779 143.973 145.93 144.027 C 145.038 144.083 144.185 143.868 143.394 143.194 C 142.83 142.713 142.298 141.998 141.808 140.981 C 141.469 140.277 141.149 139.429 140.853 138.413 C 140.853 138.413 140.858 137.293 140.866 135.419 C 140.87 134.565 140.874 133.555 140.879 132.423 C 140.883 131.5 140.888 130.495 140.892 129.428 C 140.896 128.475 140.901 127.472 140.905 126.433 C 140.909 125.462 140.914 124.46 140.918 123.437 C 140.923 122.455 140.927 121.453 140.931 120.442 C 140.936 119.45 140.94 118.448 140.944 117.446 C 140.949 116.445 140.953 115.444 140.957 114.452 C 140.962 113.441 140.966 112.44 140.97 111.457 C 140.975 110.435 140.979 109.433 140.983 108.462 C 140.988 107.423 140.992 106.42 140.996 105.466 C 141.001 104.4 141.005 103.395 141.009 102.472 C 141.014 101.341 141.019 100.331 141.022 99.4781 C 141.03 97.603 141.035 96.4823 141.035 96.4823 C 141.136 95.4373 141.22 94.4127 141.287 93.4084 C 141.357 92.3595 141.408 91.3328 141.442 90.3284 C 141.478 89.2764 141.494 88.2487 141.491 87.2455 C 141.488 86.1906 141.465 85.1627 141.422 84.1618 C 141.376 83.1057 141.308 82.0798 141.219 81.084 C 141.125 80.029 141.008 79.0078 140.868 78.0205 C 140.718 76.9693 140.544 75.9565 140.345 74.9821 C 140.132 73.9386 139.891 72.9391 139.625 71.9839 C 139.338 70.9545 139.021 69.9764 138.676 69.0497 C 138.302 68.0451 137.895 67.101 137.458 66.2173 C 136.982 65.2539 136.471 64.3624 135.927 63.543 C 135.332 62.6466 134.699 61.8364 134.033 61.1127 C 133.307 60.3244 132.541 59.6386 131.742 59.0555 C 130.886 58.4313 129.991 57.9248 129.065 57.5364 C 128.108 57.1348 127.118 56.8594 126.103 56.7105 C 125.099 56.5632 124.071 56.5395 123.026 56.6397 C 122.033 56.7349 121.026 56.942 120.01 57.2611 C 119.067 57.5575 118.117 57.9506 117.165 58.4406 C 116.287 58.8925 115.409 59.4267 114.533 60.0435 C 113.725 60.6129 112.919 61.2525 112.119 61.9627 C 111.282 61.3769 110.456 60.7926 109.642 60.2115 C 108.809 59.6174 107.988 59.0265 107.177 58.4407 C 106.347 57.841 105.529 57.2465 104.72 56.6592 C 103.892 56.0571 103.074 55.4624 102.266 54.8772 C 101.435 54.2755 100.615 53.6837 99.8036 53.1041 C 98.968 52.5069 98.1424 51.9226 97.3257 51.3536 C 96.4819 50.7656 95.6476 50.194 94.8216 49.6412 C 93.9658 49.0686 93.1188 48.5162 92.2795 47.9871 C 91.4068 47.437 90.5423 46.912 89.6844 46.4154 C 88.7907 45.898 87.9042 45.4114 87.0231 44.9593 C 86.1038 44.4876 85.1905 44.0535 84.2812 43.661 C 83.3338 43.2522 82.3908 42.8887 81.4498 42.5752 C 80.4737 42.25 79.4999 41.9787 78.5259 41.7666 C 77.5276 41.5492 76.5291 41.3939 75.5278 41.3065 C 74.5213 41.2187 73.5119 41.1995 72.4969 41.2546 C 71.5009 41.3087 70.4996 41.4345 69.4903 41.6373 C 68.5232 41.8317 67.5488 42.0968 66.5648 42.4376 C 65.6405 42.7577 64.7079 43.1445 63.7649 43.6021 C 62.7127 44.0219 61.7588 44.4241 60.8981 44.81 C 59.8251 45.2911 58.897 45.7468 58.104 46.1795 C 56.977 46.7945 56.1228 47.3631 55.5131 47.8924 C 54.3396 48.9109 54.0719 49.7836 54.5083 50.5603 C 54.8764 51.2156 55.7457 51.8024 56.995 52.3509 C 57.8182 52.7123 58.8063 53.0569 59.9247 53.3935 C 60.8438 53.6701 61.8509 53.9411 62.9268 54.2115 C 63.8857 54.4524 64.8993 54.6928 65.954 54.936 C 66.9336 55.1619 67.9486 55.3901 68.9881 55.6235 C 69.9808 55.8463 70.9958 56.0738 72.0236 56.3082 C 73.0246 56.5366 74.0377 56.7715 75.0543 57.0153 C 76.0601 57.2565 77.0693 57.5063 78.0733 57.7668 C 79.0819 58.0285 80.0852 58.301 81.0748 58.5865 C 82.0834 58.8774 83.0778 59.1818 84.0486 59.5019 C 85.0536 59.8333 86.0335 60.1815 86.9781 60.549 C 87.9743 60.9366 88.9312 61.3457 89.8371 61.7792 C 90.8116 62.2456 91.7269 62.7402 92.5683 63.2667 C 93.4948 63.8465 94.3316 64.4649 95.0591 65.1269 C 95.8676 65.8626 96.5411 66.6522 97.0525 67.5022 C 97.486 68.475 97.8558 69.4159 98.1659 70.3267 C 98.51 71.3375 98.7805 72.3113 98.9829 73.2507 C 99.2075 74.2927 99.3482 75.2925 99.4126 76.2537 C 99.4833 77.3097 99.4619 78.3192 99.3581 79.2868 C 99.2469 80.3236 99.0413 81.3125 98.7532 82.2592 C 98.4552 83.2384 98.0691 84.1726 97.6083 85.0684 C 97.1469 85.9653 96.6105 86.8237 96.0127 87.65 C 95.426 88.4611 94.78 89.2414 94.0876 89.9971 C 93.4121 90.7342 92.6924 91.448 91.9403 92.1441 C 91.205 92.8246 90.4388 93.4883 89.6527 94.1404 C 88.8782 94.7829 88.0845 95.4142 87.282 96.0395 C 86.4847 96.6607 85.6787 97.2761 84.8744 97.8906 C 84.0674 98.5072 83.2621 99.1229 82.469 99.7428 C 81.6648 100.371 80.8731 101.004 80.1048 101.647 C 79.318 102.305 78.5559 102.974 77.83 103.658 C 77.0808 104.364 76.3703 105.087 75.7113 105.833 C 75.0301 106.604 74.4039 107.4 73.847 108.228 C 73.277 109.075 72.7795 109.955 72.3698 110.876 C 71.9617 111.794 71.6407 112.752 71.4219 113.757 C 71.3576 114.864 71.325 115.925 71.3228 116.941 C 71.3203 118.055 71.3541 119.115 71.4224 120.126 C 71.4978 121.241 71.6151 122.295 71.7717 123.292 C 71.9457 124.399 72.1681 125.435 72.4355 126.406 C 72.733 127.486 73.0861 128.485 73.49 129.41 C 73.9353 130.429 74.4422 131.359 75.0044 132.208 C 75.6095 133.123 76.2785 133.944 77.0033 134.684 C 77.7556 135.452 78.5679 136.132 79.4313 136.739 C 80.2974 137.347 81.2147 137.881 82.1742 138.353 C 83.1163 138.817 84.0989 139.222 85.1133 139.58 C 86.1014 139.929 87.1197 140.235 88.16 140.508 C 89.1762 140.774 90.2135 141.01 91.2643 141.226 C 92.2972 141.438 93.3431 141.632 94.3951 141.816 C 95.4382 141.999 96.4872 142.174 97.5351 142.35 C 98.5849 142.526 99.6336 142.704 100.674 142.894 C 101.726 143.086 102.77 143.289 103.798 143.516 C 104.847 143.747 105.879 144.001 106.888 144.29 C 108.015 144.446 109.059 144.448 110.026 144.31 C 111.11 144.154 112.099 143.823 113.002 143.337 C 113.911 142.847 114.735 142.201 115.484 141.418 C 116.177 140.695 116.806 139.854 117.381 138.914 C 117.904 138.06 118.381 137.123 118.82 136.116 C 119.224 135.192 119.595 134.208 119.94 133.175 C 120.261 132.211 120.559 131.203 120.838 130.159 C 121.103 129.169 121.35 128.147 121.584 127.1 C 121.809 126.094 122.021 125.064 122.223 124.017 C 122.42 123 122.608 121.966 122.79 120.921 C 122.969 119.895 123.142 118.858 123.313 117.817 C 123.482 116.784 123.648 115.746 123.814 114.708 C 123.979 113.67 124.145 112.633 124.314 111.6 C 124.483 110.558 124.656 109.522 124.834 108.495 C 125.015 107.451 125.202 106.416 125.398 105.398 C 125.599 104.351 125.809 103.321 126.032 102.314 C 126.264 101.267 126.508 100.245 126.77 99.2538 C 127.046 98.2099 127.341 97.2008 127.658 96.234 C 127.998 95.1997 128.364 94.214 128.762 93.2863 C 129.573 92.2065 130.345 91.6785 131.075 91.5998 C 131.94 91.5064 132.745 92.0435 133.482 93.0401 C 133.978 93.7102 134.443 94.5881 134.875 95.6218 C 135.223 96.454 135.55 97.3871 135.854 98.3941 C 136.124 99.2888 136.376 100.242 136.609 101.234 C 136.828 102.164 137.03 103.128 137.215 104.111 C 137.395 105.064 137.558 106.035 137.705 107.01 C 137.851 107.983 137.98 108.958 138.092 109.923 C 138.208 110.915 138.304 111.896 138.382 112.85 C 138.382 112.85 138.37 114.05 138.35 115.953 C 138.341 116.849 138.33 117.902 138.318 119.058 C 138.308 120.03 138.298 121.075 138.287 122.163 C 138.276 123.169 138.266 124.212 138.255 125.266 C 138.244 126.298 138.233 127.34 138.223 128.371 C 138.212 129.426 138.201 130.469 138.191 131.476 C 138.18 132.564 138.169 133.609 138.159 134.58 C 138.147 135.736 138.137 136.788 138.127 137.684 C 138.108 139.588 138.096 140.789 138.096 140.789 C 138.637 141.706 139.158 142.525 139.66 143.252 C 140.283 144.153 140.878 144.915 141.448 145.554 C 142.211 146.41 142.93 147.045 143.612 147.499 C 144.585 148.146 145.483 148.424 146.33 148.449 C 147.314 148.477 148.229 148.164 149.11 147.687 C 149.937 147.24 150.735 146.65 151.534 146.064 C 152.335 145.476 153.137 144.893 153.97 144.464 C 154.856 144.007 155.778 143.724 156.771 143.794 C 156.771 143.794 156.883 142.682 157.058 140.95 C 157.141 140.125 157.238 139.159 157.344 138.106 C 157.434 137.21 157.531 136.25 157.63 135.26 C 157.724 134.33 157.82 133.373 157.917 132.415 C 158.013 131.458 158.109 130.501 158.203 129.571 C 158.303 128.581 158.399 127.622 158.489 126.726 C 158.595 125.673 158.692 124.707 158.775 123.882 C 158.95 122.15 159.062 121.037 159.062 121.037 C 159.336 120.176 159.613 119.323 159.903 118.501 C 160.212 117.628 160.534 116.79 160.884 116.016 C 161.276 115.145 161.701 114.354 162.176 113.682 C 162.738 112.886 163.37 112.256 164.099 111.858 C 164.849 111.448 165.702 111.283 166.688 111.436 C 167.437 111.552 168.263 111.851 169.179 112.364 C 169.885 113.179 170.459 114.014 170.914 114.867 C 171.408 115.795 171.76 116.746 171.986 117.714 C 172.216 118.705 172.314 119.716 172.295 120.742 C 172.277 121.737 172.149 122.746 171.927 123.766 C 171.717 124.731 171.422 125.706 171.055 126.688 C 170.709 127.614 170.299 128.547 169.835 129.484 C 169.395 130.374 168.906 131.268 168.378 132.164 C 167.871 133.024 167.328 133.886 166.756 134.747 C 166.201 135.584 165.62 136.421 165.019 137.256 C 164.43 138.076 163.822 138.893 163.203 139.707 C 162.589 140.515 161.963 141.319 161.334 142.119 C 160.702 142.92 160.067 143.717 159.434 144.507 C 158.792 145.308 158.153 146.102 157.525 146.888 C 156.879 147.694 156.245 148.491 155.628 149.278 C 154.987 150.097 154.365 150.905 153.772 151.699 C 153.143 152.541 152.547 153.368 151.993 154.178 C 151.391 155.056 150.84 155.915 150.353 156.75 C 149.933 157.708 149.557 158.656 149.223 159.596 C 148.873 160.579 148.568 161.553 148.304 162.517 C 148.029 163.521 147.798 164.514 147.606 165.5 C 147.408 166.517 147.252 167.525 147.132 168.525 C 147.009 169.551 146.925 170.567 146.873 171.577 C 146.821 172.605 146.802 173.626 146.812 174.64 C 146.821 175.666 146.859 176.686 146.92 177.701 C 146.981 178.723 147.065 179.741 147.166 180.755 C 147.267 181.773 147.385 182.787 147.514 183.8 C 147.642 184.813 147.782 185.825 147.925 186.836 C 148.069 187.847 148.217 188.858 148.362 189.868 C 148.508 190.879 148.652 191.89 148.787 192.903 C 148.922 193.914 149.048 194.928 149.16 195.944 C 149.272 196.958 149.369 197.974 149.445 198.995 C 149.521 200.009 149.576 201.029 149.604 202.053 C 149.731 203.186 149.772 204.225 149.738 205.179 C 149.696 206.327 149.545 207.354 149.299 208.274 C 149.007 209.368 148.583 210.312 148.053 211.134 C 147.469 212.039 146.757 212.795 145.952 213.44 C 145.146 214.085 144.247 214.618 143.291 215.075 C 142.363 215.518 141.381 215.89 140.379 216.223 C 139.389 216.552 138.38 216.844 137.381 217.13 C 136.358 217.423 135.346 217.71 134.38 218.026 C 133.345 218.365 132.362 218.736 131.473 219.183 C 130.494 219.675 129.629 220.258 128.934 220.989 C 128.197 221.746 127.514 222.482 126.882 223.198 C 126.179 223.995 125.538 224.768 124.956 225.518 C 124.3 226.364 123.719 227.181 123.205 227.972 C 122.618 228.876 122.12 229.746 121.703 230.585 C 121.221 231.554 120.846 232.482 120.565 233.373 C 120.241 234.402 120.043 235.382 119.949 236.321 C 119.843 237.372 119.868 238.371 119.995 239.329 C 120.13 240.346 120.378 241.317 120.705 242.255 C 121.037 243.205 121.45 244.121 121.907 245.017 C 122.363 245.911 122.863 246.785 123.371 247.652 C 123.882 248.523 124.4 249.387 124.889 250.257 C 125.387 251.142 125.854 252.033 126.254 252.946 C 126.658 253.871 126.992 254.817 127.215 255.8 C 127.433 256.758 127.545 257.751 127.515 258.793"
       id="path12" />
  </g>
</svg>
